<?xml version="1.0" standalone="no"?><!-- Generator: Gravit.io --><svg xmlns="http://www.w3.org/2000/svg" xmlns:xlink="http://www.w3.org/1999/xlink" style="isolation:isolate" viewBox="114 414.5 54 40" width="54" height="40"><defs><clipPath id="_clipPath_e3Ajodwdf79xQftpVIaDLBbzEzCWC5ji"><rect x="114" y="414.5" width="54" height="40"/></clipPath></defs><g clip-path="url(#_clipPath_e3Ajodwdf79xQftpVIaDLBbzEzCWC5ji)"><g><linearGradient id="_lgradient_0" x1="0.5" y1="-0.6625000000000001" x2="0.49999999999999956" y2="1.7003000000000004" gradientTransform="matrix(4,0,0,10,115,429.5)" gradientUnits="userSpaceOnUse"><stop offset="0%" stop-opacity="1" style="stop-color:rgb(109,199,255)"/><stop offset="100%" stop-opacity="1" style="stop-color:rgb(230,171,255)"/></linearGradient><path d=" M 119 438.5 C 119 439.052 118.552 439.5 118 439.5 L 116 439.5 C 115.448 439.5 115 439.052 115 438.5 L 115 430.5 C 115 429.948 115.448 429.5 116 429.5 L 118 429.5 C 118.552 429.5 119 429.948 119 430.5 L 119 438.5 Z " fill="url(#_lgradient_0)"/><linearGradient id="_lgradient_1" x1="0.5" y1="-1.3958333333333333" x2="0.49999999999999933" y2="2.2105000000000006" gradientTransform="matrix(6,0,0,12,114,428.5)" gradientUnits="userSpaceOnUse"><stop offset="0%" stop-opacity="1" style="stop-color:rgb(26,109,255)"/><stop offset="100%" stop-opacity="1" style="stop-color:rgb(200,34,255)"/></linearGradient><path d=" M 118 440.5 L 116 440.5 C 114.897 440.5 114 439.603 114 438.5 L 114 430.5 C 114 429.397 114.897 428.5 116 428.5 L 118 428.5 C 119.103 428.5 120 429.397 120 430.5 L 120 438.5 C 120 439.603 119.103 440.5 118 440.5 Z  M 116 430.5 L 116 438.5 L 118 438.5 L 118 430.5 L 116 430.5 Z " fill="url(#_lgradient_1)"/><linearGradient id="_lgradient_2" x1="0.5" y1="-0.44791666666666663" x2="0.49999999999999967" y2="1.3552500000000003" gradientTransform="matrix(6,0,0,24,122,422.5)" gradientUnits="userSpaceOnUse"><stop offset="0%" stop-opacity="1" style="stop-color:rgb(26,109,255)"/><stop offset="100%" stop-opacity="1" style="stop-color:rgb(200,34,255)"/></linearGradient><path d=" M 126 446.5 L 124 446.5 C 122.897 446.5 122 445.603 122 444.5 L 122 424.5 C 122 423.397 122.897 422.5 124 422.5 L 126 422.5 C 127.103 422.5 128 423.397 128 424.5 L 128 444.5 C 128 445.603 127.103 446.5 126 446.5 Z  M 124 424.5 L 124 444.5 L 126 444.5 L 126 424.5 L 124 424.5 Z " fill="url(#_lgradient_2)"/><linearGradient id="_lgradient_3" x1="0.5" y1="-0.06875000000000003" x2="0.4999999999999998" y2="1.0131500000000002" gradientTransform="matrix(6,0,0,40,130,414.5)" gradientUnits="userSpaceOnUse"><stop offset="0%" stop-opacity="1" style="stop-color:rgb(26,109,255)"/><stop offset="100%" stop-opacity="1" style="stop-color:rgb(200,34,255)"/></linearGradient><path d=" M 134 454.5 L 132 454.5 C 130.897 454.5 130 453.603 130 452.5 L 130 416.5 C 130 415.397 130.897 414.5 132 414.5 L 134 414.5 C 135.103 414.5 136 415.397 136 416.5 L 136 452.5 C 136 453.603 135.103 454.5 134 454.5 Z  M 132 416.5 L 132 452.5 L 134 452.5 L 134 416.5 L 132 416.5 Z " fill="url(#_lgradient_3)"/><linearGradient id="_lgradient_4" x1="0.5" y1="-0.02840909090909094" x2="0.4999999999999998" y2="1.045590909090909" gradientTransform="matrix(4,0,0,22,139,423.5)" gradientUnits="userSpaceOnUse"><stop offset="0%" stop-opacity="1" style="stop-color:rgb(109,199,255)"/><stop offset="100%" stop-opacity="1" style="stop-color:rgb(230,171,255)"/></linearGradient><path d=" M 143 444.5 C 143 445.052 142.552 445.5 142 445.5 L 140 445.5 C 139.448 445.5 139 445.052 139 444.5 L 139 424.5 C 139 423.948 139.448 423.5 140 423.5 L 142 423.5 C 142.552 423.5 143 423.948 143 424.5 L 143 444.5 Z " fill="url(#_lgradient_4)"/><linearGradient id="_lgradient_5" x1="0.5" y1="-0.44791666666666663" x2="0.49999999999999967" y2="1.3552500000000003" gradientTransform="matrix(6,0,0,24,138,422.5)" gradientUnits="userSpaceOnUse"><stop offset="0%" stop-opacity="1" style="stop-color:rgb(26,109,255)"/><stop offset="100%" stop-opacity="1" style="stop-color:rgb(200,34,255)"/></linearGradient><path d=" M 142 446.5 L 140 446.5 C 138.897 446.5 138 445.603 138 444.5 L 138 424.5 C 138 423.397 138.897 422.5 140 422.5 L 142 422.5 C 143.103 422.5 144 423.397 144 424.5 L 144 444.5 C 144 445.603 143.103 446.5 142 446.5 Z  M 140 424.5 L 140 444.5 L 142 444.5 L 142 424.5 L 140 424.5 Z " fill="url(#_lgradient_5)"/><linearGradient id="_lgradient_6" x1="0.5" y1="-0.06875000000000003" x2="0.4999999999999998" y2="1.0131500000000002" gradientTransform="matrix(6,0,0,40,146,414.5)" gradientUnits="userSpaceOnUse"><stop offset="0%" stop-opacity="1" style="stop-color:rgb(26,109,255)"/><stop offset="100%" stop-opacity="1" style="stop-color:rgb(200,34,255)"/></linearGradient><path d=" M 150 454.5 L 148 454.5 C 146.897 454.5 146 453.603 146 452.5 L 146 416.5 C 146 415.397 146.897 414.5 148 414.5 L 150 414.5 C 151.103 414.5 152 415.397 152 416.5 L 152 452.5 C 152 453.603 151.103 454.5 150 454.5 Z  M 148 416.5 L 148 452.5 L 150 452.5 L 150 416.5 L 148 416.5 Z " fill="url(#_lgradient_6)"/><linearGradient id="_lgradient_7" x1="0.5" y1="-0.44791666666666663" x2="0.49999999999999967" y2="1.3552500000000003" gradientTransform="matrix(6,0,0,24,154,422.5)" gradientUnits="userSpaceOnUse"><stop offset="0%" stop-opacity="1" style="stop-color:rgb(26,109,255)"/><stop offset="100%" stop-opacity="1" style="stop-color:rgb(200,34,255)"/></linearGradient><path d=" M 158 446.5 L 156 446.5 C 154.897 446.5 154 445.603 154 444.5 L 154 424.5 C 154 423.397 154.897 422.5 156 422.5 L 158 422.5 C 159.103 422.5 160 423.397 160 424.5 L 160 444.5 C 160 445.603 159.103 446.5 158 446.5 Z  M 156 424.5 L 156 444.5 L 158 444.5 L 158 424.5 L 156 424.5 Z " fill="url(#_lgradient_7)"/><linearGradient id="_lgradient_8" x1="0.5" y1="-0.6625000000000001" x2="0.49999999999999956" y2="1.7003000000000004" gradientTransform="matrix(4,0,0,10,163,429.5)" gradientUnits="userSpaceOnUse"><stop offset="0%" stop-opacity="1" style="stop-color:rgb(109,199,255)"/><stop offset="100%" stop-opacity="1" style="stop-color:rgb(230,171,255)"/></linearGradient><path d=" M 167 438.5 C 167 439.052 166.552 439.5 166 439.5 L 164 439.5 C 163.448 439.5 163 439.052 163 438.5 L 163 430.5 C 163 429.948 163.448 429.5 164 429.5 L 166 429.5 C 166.552 429.5 167 429.948 167 430.5 L 167 438.5 Z " fill="url(#_lgradient_8)"/><linearGradient id="_lgradient_9" x1="0.5" y1="-1.3958333333333333" x2="0.49999999999999933" y2="2.2105000000000006" gradientTransform="matrix(6,0,0,12,162,428.5)" gradientUnits="userSpaceOnUse"><stop offset="0%" stop-opacity="1" style="stop-color:rgb(26,109,255)"/><stop offset="100%" stop-opacity="1" style="stop-color:rgb(200,34,255)"/></linearGradient><path d=" M 166 440.5 L 164 440.5 C 162.897 440.5 162 439.603 162 438.5 L 162 430.5 C 162 429.397 162.897 428.5 164 428.5 L 166 428.5 C 167.103 428.5 168 429.397 168 430.5 L 168 438.5 C 168 439.603 167.103 440.5 166 440.5 Z  M 164 430.5 L 164 438.5 L 166 438.5 L 166 430.5 L 164 430.5 Z " fill="url(#_lgradient_9)"/></g></g></svg>