<?xml version="1.0" standalone="no"?><!-- Generator: Gravit.io --><svg xmlns="http://www.w3.org/2000/svg" xmlns:xlink="http://www.w3.org/1999/xlink" style="isolation:isolate" viewBox="166.381 409 162.676 147.381" width="162.676" height="147.381"><defs><clipPath id="_clipPath_c1TDtzKau2Fi0zsuersmyJ3YSYrcmmtq"><rect x="166.381" y="409" width="162.676" height="147.381"/></clipPath></defs><g clip-path="url(#_clipPath_c1TDtzKau2Fi0zsuersmyJ3YSYrcmmtq)"><path d=" M 186.564 496.281 L 183.245 496.281 L 183.245 409 L 176.966 409 L 176.966 496.281 L 173.647 496.281 C 169.655 496.281 166.381 499.555 166.381 503.547 L 166.381 526.78 C 166.381 530.771 169.655 534.046 173.647 534.046 L 176.966 534.046 L 176.966 556.337 L 183.245 556.337 L 183.245 534.046 L 186.564 534.046 C 190.556 534.046 193.83 530.771 193.83 526.78 L 193.83 503.502 C 193.785 499.51 190.556 496.281 186.564 496.281 Z  M 173.647 501.214 L 186.519 501.214 C 187.775 501.214 188.852 502.246 188.852 503.547 L 188.852 513.369 L 171.315 513.369 L 171.315 503.547 C 171.339 502.269 172.369 501.238 173.647 501.214 L 173.647 501.214 Z  M 186.564 529.112 L 173.692 529.112 C 172.436 529.112 171.36 528.08 171.36 526.78 L 171.36 516.957 L 188.897 516.957 L 188.897 526.78 C 188.852 528.035 187.82 529.112 186.564 529.112 L 186.564 529.112 Z  M 231.64 452.596 L 228.321 452.596 L 228.321 409 L 222.042 409 L 222.042 452.596 L 218.723 452.596 C 214.731 452.596 211.457 455.87 211.457 459.861 L 211.457 483.139 C 211.457 487.131 214.731 490.405 218.723 490.405 L 222.042 490.405 L 222.042 556.381 L 228.321 556.381 L 228.321 490.36 L 231.64 490.36 C 235.632 490.36 238.906 487.086 238.906 483.094 L 238.906 459.817 C 238.857 455.831 235.625 452.62 231.64 452.596 L 231.64 452.596 Z  M 218.723 457.529 L 231.595 457.529 C 232.851 457.529 233.927 458.561 233.927 459.861 L 233.927 469.684 L 216.39 469.684 L 216.39 459.861 C 216.414 458.583 217.445 457.553 218.723 457.529 L 218.723 457.529 Z  M 231.64 485.427 L 218.723 485.427 C 217.467 485.427 216.39 484.395 216.39 483.094 L 216.39 473.272 L 233.927 473.272 L 233.927 483.094 C 233.927 484.395 232.896 485.427 231.64 485.427 Z  M 276.716 475.335 L 273.397 475.335 L 273.397 409 L 267.117 409 L 267.117 475.335 L 263.798 475.335 C 259.807 475.335 256.532 478.609 256.532 482.601 L 256.532 505.879 C 256.532 509.871 259.807 513.145 263.798 513.145 L 267.117 513.145 L 267.117 556.337 L 273.397 556.337 L 273.397 513.145 L 276.716 513.145 C 280.707 513.145 283.981 509.871 283.981 505.879 L 283.981 482.601 C 283.937 478.609 280.707 475.335 276.716 475.335 Z  M 263.798 480.269 L 276.671 480.269 C 277.927 480.269 279.003 481.3 279.003 482.601 L 279.003 492.423 L 261.466 492.423 L 261.466 482.601 C 261.466 481.345 262.543 480.269 263.798 480.269 L 263.798 480.269 Z  M 276.716 508.211 L 263.843 508.211 C 262.587 508.211 261.511 507.18 261.511 505.879 L 261.511 496.056 L 279.048 496.056 L 279.048 505.879 C 279.003 507.135 277.971 508.211 276.716 508.211 L 276.716 508.211 Z  M 321.791 489.104 L 318.472 489.104 L 318.472 409 L 312.193 409 L 312.193 489.104 L 308.874 489.104 C 304.882 489.104 301.608 492.379 301.608 496.37 L 301.608 519.648 C 301.608 523.64 304.882 526.914 308.874 526.914 L 312.193 526.914 L 312.193 556.381 L 318.472 556.381 L 318.472 526.914 L 321.791 526.914 C 325.783 526.914 329.057 523.64 329.057 519.648 L 329.057 496.37 C 329.012 492.379 325.783 489.104 321.791 489.104 L 321.791 489.104 Z  M 308.874 494.038 L 321.746 494.038 C 323.002 494.038 324.079 495.07 324.079 496.37 L 324.079 506.193 L 306.542 506.193 L 306.542 496.37 C 306.542 495.07 307.618 494.038 308.874 494.038 L 308.874 494.038 Z  M 321.791 521.936 L 308.874 521.936 C 307.618 521.936 306.542 520.904 306.542 519.603 L 306.542 509.781 L 324.079 509.781 L 324.079 519.603 C 324.079 520.904 323.047 521.936 321.791 521.936 Z " fill="rgb(116,116,120)"/></g></svg>