<?xml version="1.0" standalone="no"?><!-- Generator: Gravit.io --><svg xmlns="http://www.w3.org/2000/svg" xmlns:xlink="http://www.w3.org/1999/xlink" style="isolation:isolate" viewBox="-46.727 8 102.754 63.554" width="102.754" height="63.554"><defs><clipPath id="_clipPath_5NEQgJJk4Bt7TvXdO9CgLsDMEhLU8F3Z"><rect x="-46.727" y="8" width="102.754" height="63.554"/></clipPath></defs><g clip-path="url(#_clipPath_5NEQgJJk4Bt7TvXdO9CgLsDMEhLU8F3Z)"><g><path d=" M -32.823 56.978 L -32.823 71.554 L -40.269 71.554 C -43.812 71.554 -46.682 68.684 -46.682 65.141 L -46.682 31.637 L -37.308 31.637 L -37.308 53.076 C -37.308 55.228 -35.559 56.978 -33.406 56.978 L -32.823 56.978 Z  M -30.939 56.978 C -28.787 56.978 -27.037 55.228 -27.037 53.076 L -27.037 31.637 L -22.463 31.637 L -22.463 53.076 C -22.463 55.228 -20.713 56.978 -18.56 56.978 L -18.067 56.978 L -18.067 71.554 L -31.388 71.554 L -31.388 56.978 L -30.939 56.978 L -30.939 56.978 Z  M -16.049 56.978 C -13.896 56.978 -12.147 55.228 -12.147 53.076 L -12.147 31.637 L -3.266 31.637 L -3.266 71.554 L -16.587 71.554 L -16.587 56.978 L -16.049 56.978 Z  M 43.155 56.978 C 45.308 56.978 47.057 55.228 47.057 53.076 L 47.057 31.637 L 56.027 31.637 L 56.027 65.141 C 56.027 68.684 53.157 71.554 49.614 71.554 L 42.706 71.554 L 42.706 56.978 L 43.155 56.978 Z  M 28.354 56.978 C 30.507 56.978 32.256 55.228 32.256 53.076 L 32.256 31.637 L 36.741 31.637 L 36.741 53.076 C 36.741 55.228 38.49 56.978 40.643 56.978 L 41.137 56.978 L 41.137 71.554 L 27.816 71.554 L 27.816 56.978 L 28.354 56.978 Z  M 13.553 56.978 C 15.706 56.978 17.455 55.228 17.455 53.076 L 17.455 31.637 L 21.94 31.637 L 21.94 53.076 C 21.94 55.228 23.689 56.978 25.842 56.978 L 26.336 56.978 L 26.336 71.554 L 13.015 71.554 L 13.015 56.978 L 13.553 56.978 Z  M 11.535 56.978 L 11.535 71.554 L -1.786 71.554 L -1.786 31.637 L 7.094 31.637 L 7.094 53.076 C 7.094 55.228 8.844 56.978 10.997 56.978 L 11.535 56.978 Z " fill="rgb(242,157,31)"/><path d=" M -28.517 31.637 L -28.517 53.076 C -28.517 54.421 -29.594 55.498 -30.939 55.498 L -33.406 55.498 C -34.752 55.498 -35.828 54.421 -35.828 53.076 L -35.828 31.637 L -28.517 31.637 Z  M -13.627 31.637 L -13.627 53.076 C -13.627 54.421 -14.703 55.498 -16.049 55.498 L -18.516 55.498 C -19.861 55.498 -20.938 54.421 -20.938 53.076 L -20.938 31.637 L -13.627 31.637 Z  M 45.577 31.637 L 45.577 53.076 C 45.577 54.421 44.501 55.498 43.155 55.498 L 40.688 55.498 C 39.343 55.498 38.266 54.421 38.266 53.076 L 38.266 31.637 L 45.577 31.637 L 45.577 31.637 Z  M 30.776 31.637 L 30.776 53.076 C 30.776 54.421 29.7 55.498 28.354 55.498 L 25.887 55.498 C 24.542 55.498 23.465 54.421 23.465 53.076 L 23.465 31.637 L 30.776 31.637 L 30.776 31.637 Z  M 15.975 31.637 L 15.975 53.076 C 15.975 54.421 14.899 55.498 13.553 55.498 L 11.086 55.498 C 9.741 55.498 8.664 54.421 8.664 53.076 L 8.664 31.637 L 15.975 31.637 L 15.975 31.637 Z  M 20.954 15.445 C 18.756 15.445 16.962 17.239 16.962 19.437 C 16.962 19.841 17.276 20.2 17.724 20.2 C 18.128 20.2 18.487 19.886 18.487 19.437 C 18.487 18.047 19.608 16.925 20.998 16.925 C 21.402 16.925 21.761 16.611 21.761 16.163 C 21.716 15.759 21.357 15.445 20.954 15.445 L 20.954 15.445 Z  M 20.954 14.548 C 23.645 14.548 25.842 16.746 25.842 19.437 C 25.842 22.128 23.645 24.326 20.954 24.326 C 18.262 24.326 16.065 22.128 16.065 19.437 C 16.065 16.746 18.262 14.548 20.954 14.548 L 20.954 14.548 Z  M 5.749 24.191 C 4.487 24.5 3.155 24.289 2.05 23.606 C 0.945 22.923 0.161 21.825 -0.127 20.558 C -0.46 19.106 -0.116 17.581 0.808 16.412 C 1.733 15.244 3.138 14.558 4.628 14.548 C 6.915 14.548 8.844 16.118 9.382 18.316 C 10.01 20.917 8.395 23.563 5.749 24.191 Z  M 5.57 23.339 C 5.973 23.249 6.242 22.846 6.108 22.442 C 6.018 22.038 5.614 21.769 5.211 21.904 C 3.865 22.218 2.52 21.366 2.206 20.02 C 2.116 19.616 1.712 19.347 1.309 19.482 C 0.905 19.572 0.636 19.975 0.77 20.379 C 1.219 22.218 2.834 23.474 4.673 23.474 L 5.57 23.339 Z  M -11.653 15.445 C -13.851 15.445 -15.645 17.239 -15.645 19.437 C -15.645 19.841 -15.331 20.2 -14.883 20.2 C -14.479 20.2 -14.12 19.886 -14.12 19.437 C -14.12 18.047 -12.999 16.925 -11.609 16.925 C -11.205 16.925 -10.846 16.611 -10.846 16.163 C -10.891 15.759 -11.25 15.445 -11.653 15.445 L -11.653 15.445 Z  M -11.653 14.548 C -8.962 14.548 -6.765 16.746 -6.765 19.437 C -6.765 22.128 -8.962 24.326 -11.653 24.326 C -14.344 24.326 -16.542 22.128 -16.542 19.437 C -16.542 16.746 -14.344 14.548 -11.653 14.548 L -11.653 14.548 Z  M 56.027 14.414 L 56.027 30.112 L -46.727 30.112 L -46.727 14.414 C -46.727 10.87 -43.857 8 -40.313 8 L 49.569 8 C 53.112 8 56.027 10.915 56.027 14.414 L 56.027 14.414 Z  M 49.703 14.862 C 49.703 14.459 49.389 14.1 48.941 14.1 L 34.857 14.1 C 34.454 14.1 34.095 14.414 34.095 14.862 C 34.095 15.266 34.409 15.625 34.857 15.625 L 48.941 15.625 C 49.344 15.58 49.703 15.266 49.703 14.862 L 49.703 14.862 Z  M 49.703 18.002 C 49.703 17.598 49.389 17.239 48.941 17.239 L 34.857 17.239 C 34.454 17.239 34.095 17.553 34.095 18.002 C 34.095 18.406 34.409 18.764 34.857 18.764 L 48.941 18.764 C 49.344 18.764 49.703 18.45 49.703 18.002 L 49.703 18.002 Z  M 49.703 21.186 C 49.703 20.783 49.389 20.424 48.941 20.424 L 34.857 20.424 C 34.454 20.424 34.095 20.738 34.095 21.186 C 34.095 21.59 34.409 21.949 34.857 21.949 L 48.941 21.949 C 49.344 21.949 49.703 21.59 49.703 21.186 L 49.703 21.186 Z  M 49.703 24.371 C 49.703 23.967 49.389 23.608 48.941 23.608 L 34.857 23.608 C 34.454 23.608 34.095 23.922 34.095 24.371 C 34.095 24.774 34.409 25.133 34.857 25.133 L 48.941 25.133 C 49.344 25.088 49.703 24.774 49.703 24.371 L 49.703 24.371 Z  M 27.322 19.437 C 27.324 17.163 26.112 15.061 24.144 13.923 C 22.176 12.785 19.75 12.783 17.78 13.919 C 15.81 15.054 14.595 17.154 14.594 19.428 C 14.591 22.943 17.439 25.795 20.954 25.797 C 24.469 25.799 27.32 22.952 27.322 19.437 L 27.322 19.437 Z  M 6.108 25.627 C 9.516 24.819 11.669 21.366 10.862 17.957 C 10.488 16.302 9.465 14.867 8.023 13.973 C 6.581 13.079 4.841 12.802 3.192 13.203 C -0.216 14.01 -2.369 17.464 -1.562 20.872 C -1.188 22.527 -0.165 23.963 1.277 24.856 C 2.719 25.75 4.459 26.028 6.108 25.627 Z  M -5.284 19.437 C -5.283 17.163 -6.494 15.061 -8.463 13.923 C -10.431 12.785 -12.857 12.783 -14.827 13.919 C -16.797 15.054 -18.012 17.154 -18.013 19.428 C -18.016 22.943 -15.168 25.795 -11.653 25.797 C -8.138 25.799 -5.287 22.952 -5.284 19.437 L -5.284 19.437 Z  M -23.494 14.862 C -23.494 14.459 -23.808 14.1 -24.257 14.1 L -38.34 14.1 C -38.744 14.1 -39.102 14.414 -39.102 14.862 C -39.102 15.266 -38.788 15.625 -38.34 15.625 L -24.257 15.625 C -23.853 15.58 -23.494 15.266 -23.494 14.862 Z  M -23.494 18.002 C -23.494 17.598 -23.808 17.239 -24.257 17.239 L -38.34 17.239 C -38.744 17.239 -39.102 17.553 -39.102 18.002 C -39.102 18.406 -38.788 18.764 -38.34 18.764 L -24.257 18.764 C -23.853 18.764 -23.494 18.45 -23.494 18.002 Z  M -23.494 21.186 C -23.494 20.783 -23.808 20.424 -24.257 20.424 L -38.34 20.424 C -38.744 20.424 -39.102 20.738 -39.102 21.186 C -39.102 21.59 -38.788 21.949 -38.34 21.949 L -24.257 21.949 C -23.853 21.949 -23.494 21.59 -23.494 21.186 Z  M -23.494 24.371 C -23.494 23.967 -23.808 23.608 -24.257 23.608 L -38.34 23.608 C -38.744 23.608 -39.102 23.922 -39.102 24.371 C -39.102 24.774 -38.788 25.133 -38.34 25.133 L -24.257 25.133 C -23.853 25.088 -23.494 24.774 -23.494 24.371 Z " fill="rgb(0,0,0)"/></g></g></svg>