<?xml version="1.0" standalone="no"?><!-- Generator: Gravit.io --><svg xmlns="http://www.w3.org/2000/svg" xmlns:xlink="http://www.w3.org/1999/xlink" style="isolation:isolate" viewBox="-87.48 419.851 194.072 94.322" width="194.072" height="94.322"><defs><clipPath id="_clipPath_CjzoreSrWve9RDFlGqlBqIC6bwJgQtvK"><rect x="-87.48" y="419.851" width="194.072" height="94.322"/></clipPath></defs><g clip-path="url(#_clipPath_CjzoreSrWve9RDFlGqlBqIC6bwJgQtvK)"><path d=" M 88.248 419.851 L -69.136 419.851 C -79.227 419.851 -87.48 428.058 -87.48 438.195 L -87.48 495.874 C -87.48 504.664 -81.245 512.02 -72.993 513.769 L -72.993 514.083 L -70.122 514.128 C -69.808 514.128 -69.45 514.173 -69.136 514.173 L 89.235 514.173 L 92.105 514.128 L 92.105 513.814 C 100.358 512.02 106.592 504.664 106.592 495.918 L 106.592 438.195 C 106.592 428.058 98.339 419.851 88.248 419.851 Z  M -40.834 490.133 L -40.834 461.787 L -34.645 461.787 L -34.645 490.133 L -27.558 490.133 L -27.558 461.787 L -8.093 461.787 L -8.093 490.133 L -1.006 490.133 L -1.006 461.787 L 5.183 461.787 L 5.183 490.133 L 12.27 490.133 L 12.27 461.787 L 18.459 461.787 L 18.459 490.133 L 25.546 490.133 L 25.546 461.787 L 45.011 461.787 L 45.011 490.133 L 52.098 490.133 L 52.098 461.787 L 58.287 461.787 L 58.287 490.133 L 65.374 490.133 L 65.374 461.787 L 76.048 461.787 C 80.982 461.787 85.018 465.823 85.018 470.757 L 85.018 507.086 L -65.906 507.086 L -65.906 470.757 C -65.906 465.823 -61.87 461.787 -56.936 461.787 L -47.876 461.787 L -47.876 490.133 L -40.834 490.133 L -40.834 490.133 Z  M 99.505 495.829 C 99.505 500.673 96.411 504.799 92.105 506.414 L 92.105 470.757 C 92.105 461.921 84.929 454.7 76.048 454.7 L -56.981 454.7 C -65.817 454.7 -73.038 461.876 -73.038 470.757 L -73.038 506.414 C -77.484 504.792 -80.442 500.562 -80.438 495.829 L -80.438 438.195 C -80.438 432.005 -75.415 426.937 -69.18 426.937 L 88.203 426.937 C 94.392 426.937 99.461 431.96 99.461 438.195 L 99.461 495.829 L 99.505 495.829 L 99.505 495.829 Z  M -58.237 433.754 C -62.139 433.754 -65.323 436.939 -65.323 440.841 C -65.323 444.743 -62.139 447.928 -58.237 447.928 C -54.335 447.928 -51.15 444.743 -51.15 440.841 C -51.15 436.939 -54.335 433.754 -58.237 433.754 Z  M -58.237 444.384 C -60.21 444.384 -61.78 442.814 -61.78 440.841 C -61.78 438.868 -60.21 437.298 -58.237 437.298 C -56.263 437.298 -54.693 438.868 -54.693 440.841 C -54.693 442.814 -56.308 444.384 -58.237 444.384 Z  M -37.022 433.754 C -40.924 433.754 -44.109 436.939 -44.109 440.841 C -44.109 444.743 -40.924 447.928 -37.022 447.928 C -33.12 447.928 -29.935 444.743 -29.935 440.841 C -29.935 436.939 -33.12 433.754 -37.022 433.754 Z  M -37.022 444.384 C -38.995 444.384 -40.565 442.814 -40.565 440.841 C -40.565 438.868 -38.995 437.298 -37.022 437.298 C -35.049 437.298 -33.479 438.868 -33.479 440.841 C -33.479 442.814 -35.049 444.384 -37.022 444.384 Z  M 33.17 435.818 L -14.058 435.818 C -15.045 435.818 -15.807 436.625 -15.807 437.567 C -15.807 438.509 -15 439.316 -14.058 439.316 L 33.17 439.316 C 34.136 439.316 34.92 438.533 34.92 437.567 C 34.92 436.601 34.136 435.818 33.17 435.818 Z  M 28.057 444.653 L -8.9 444.653 C -9.887 444.653 -10.649 445.461 -10.649 446.403 C -10.649 447.344 -9.842 448.152 -8.9 448.152 L 28.057 448.152 C 29.044 448.152 29.806 447.344 29.806 446.403 C 29.806 445.461 28.999 444.653 28.057 444.653 L 28.057 444.653 Z " fill="rgb(0,0,0)"/></g></svg>