<?xml version="1.0" standalone="no"?><!-- Generator: Gravit.io --><svg xmlns="http://www.w3.org/2000/svg" xmlns:xlink="http://www.w3.org/1999/xlink" style="isolation:isolate" viewBox="-96.669 16.14 139.577 67.86" width="139.577" height="67.86"><defs><clipPath id="_clipPath_AoouTVPzU1t6gUwY1UgtROBYRf7RUWXr"><rect x="-96.669" y="16.14" width="139.577" height="67.86"/></clipPath></defs><g clip-path="url(#_clipPath_AoouTVPzU1t6gUwY1UgtROBYRf7RUWXr)"><g><path d=" M 20.976 46.325 L 13.306 46.325 L 13.306 48.433 L 17.164 48.433 C 22.142 48.433 26.134 52.47 26.134 57.403 L 26.134 78.887 L 27.39 78.887 L 27.39 52.739 C 27.435 49.195 24.519 46.325 20.976 46.325 L 20.976 46.325 Z  M -77.024 48.433 L -68.233 48.433 L -68.233 46.325 L -74.692 46.325 C -77.607 46.325 -80.074 48.253 -80.837 50.9 C -79.805 49.778 -78.504 48.926 -77.024 48.433 Z  M 3.753 46.325 L 8.193 46.325 L 8.193 48.433 L 3.753 48.433 L 3.753 46.325 Z  M -63.12 46.325 L -58.68 46.325 L -58.68 48.433 L -63.12 48.433 L -63.12 46.325 Z  M -53.567 46.325 L -39.573 46.325 L -39.573 48.433 L -53.567 48.433 L -53.567 46.325 L -53.567 46.325 Z  M -91.556 70.814 C -91.556 74.312 -89.358 77.272 -86.264 78.394 L -86.264 52.739 C -86.264 46.373 -81.103 41.212 -74.737 41.212 L 20.931 41.212 C 27.297 41.212 32.458 46.373 32.458 52.739 L 32.458 78.394 C 32.951 78.214 33.445 77.99 33.893 77.721 C 33.938 77.317 33.938 76.958 33.938 76.555 L 33.938 35.067 C 33.938 29.192 29.184 24.437 23.308 24.437 L -89.897 24.437 C -90.928 25.783 -91.556 27.487 -91.556 29.326 L -91.556 70.814 L -91.556 70.814 Z  M 24.654 29.326 C 26.044 29.326 27.21 30.448 27.21 31.883 C 27.21 33.318 26.089 34.439 24.654 34.439 C 23.219 34.439 22.097 33.318 22.097 31.883 C 22.097 30.448 23.219 29.326 24.654 29.326 Z  M -13.56 36.547 L -40.156 36.547 C -40.874 36.547 -41.412 35.964 -41.412 35.291 C -41.412 34.619 -40.829 34.036 -40.156 34.036 L -13.56 34.036 C -12.842 34.036 -12.304 34.619 -12.304 35.291 C -12.304 35.964 -12.887 36.547 -13.56 36.547 Z  M -43.834 27.622 L -9.882 27.622 C -9.164 27.622 -8.626 28.205 -8.626 28.878 C -8.626 29.55 -9.209 30.134 -9.882 30.134 L -43.834 30.134 C -44.283 30.134 -44.697 29.894 -44.922 29.506 C -45.146 29.117 -45.146 28.638 -44.922 28.25 C -44.697 27.861 -44.283 27.622 -43.834 27.622 L -43.834 27.622 Z  M -60.339 26.142 C -58.478 26.086 -56.732 27.047 -55.784 28.65 C -54.836 30.254 -54.836 32.246 -55.782 33.851 C -56.729 35.455 -58.473 36.418 -60.335 36.363 C -63.099 36.283 -65.298 34.02 -65.299 31.255 C -65.3 28.49 -63.103 26.225 -60.339 26.142 Z  M -75.634 26.142 C -73.772 26.086 -72.027 27.047 -71.079 28.65 C -70.131 30.254 -70.13 32.246 -71.076 33.851 C -72.023 35.455 -73.767 36.418 -75.629 36.363 C -78.393 36.283 -80.592 34.02 -80.593 31.255 C -80.594 28.49 -78.397 26.225 -75.634 26.142 Z  M -34.46 46.325 L -30.02 46.325 L -30.02 48.433 L -34.46 48.433 L -34.46 46.325 Z  M -59.442 32.242 C -59.442 32.78 -59.577 33.273 -59.801 33.722 C -58.736 33.5 -57.931 32.623 -57.799 31.543 C -57.668 30.463 -58.239 29.42 -59.22 28.948 C -60.201 28.477 -61.372 28.683 -62.134 29.461 L -61.909 29.461 C -60.564 29.461 -59.442 30.717 -59.442 32.242 Z  M -74.468 32.242 C -74.468 32.735 -74.602 33.228 -74.782 33.632 C -73.795 33.273 -73.032 32.331 -73.032 31.21 C -73.032 29.82 -74.154 28.653 -75.589 28.653 C -76.307 28.653 -76.979 28.967 -77.428 29.461 C -77.248 29.416 -77.069 29.416 -76.89 29.416 C -75.589 29.461 -74.468 30.717 -74.468 32.242 L -74.468 32.242 Z  M -15.354 46.325 L -1.36 46.325 L -1.36 48.433 L -15.354 48.433 L -15.354 46.325 Z  M -24.907 46.325 L -20.467 46.325 L -20.467 48.433 L -24.907 48.433 L -24.907 46.325 Z " fill="rgb(87,198,209)"/><path d=" M -75.634 33.767 C -75.365 33.767 -75.051 33.722 -74.826 33.632 C -74.602 33.228 -74.513 32.735 -74.513 32.242 C -74.513 30.672 -75.634 29.416 -76.979 29.416 C -77.159 29.416 -77.338 29.461 -77.518 29.461 C -77.921 29.909 -78.19 30.537 -78.19 31.21 C -78.19 32.645 -77.024 33.767 -75.634 33.767 L -75.634 33.767 Z  M -60.339 33.767 C -60.16 33.767 -59.981 33.767 -59.801 33.722 C -59.577 33.273 -59.442 32.78 -59.442 32.242 C -59.442 30.672 -60.564 29.416 -61.909 29.416 L -62.134 29.416 C -62.582 29.864 -62.851 30.492 -62.851 31.21 C -62.876 31.887 -62.621 32.545 -62.146 33.029 C -61.671 33.513 -61.017 33.779 -60.339 33.767 L -60.339 33.767 Z " fill="rgb(64,137,137)"/><path d=" M 8.238 66.687 L 8.238 48.433 L 3.798 48.433 L 3.798 66.687 L -1.315 66.687 L -1.315 48.433 L -15.309 48.433 L -15.309 66.687 L -20.422 66.687 L -20.422 48.433 L -24.907 48.433 L -24.907 66.687 L -30.02 66.687 L -30.02 48.433 L -34.46 48.433 L -34.46 66.687 L -39.573 66.687 L -39.573 48.433 L -53.567 48.433 L -53.567 66.687 L -58.68 66.687 L -58.68 48.433 L -63.12 48.433 L -63.12 66.687 L -68.233 66.687 L -68.233 48.433 L -76.845 48.433 C -76.89 48.747 -76.934 49.061 -76.934 49.375 L -76.934 72.608 C -75.679 73.101 -74.333 73.415 -72.898 73.415 L 26.089 73.415 L 26.089 57.403 C 26.089 52.425 22.052 48.433 17.119 48.433 L 13.262 48.433 L 13.262 66.687 L 8.238 66.687 L 8.238 66.687 Z  M 20.393 52.694 C 21.783 52.694 22.949 53.815 22.949 55.25 C 22.949 56.686 21.828 57.807 20.393 57.807 C 18.958 57.807 17.836 56.686 17.836 55.25 C 17.836 53.815 19.003 52.694 20.393 52.694 Z " fill="rgb(159,217,221)"/><path d=" M 20.393 52.649 C 21.783 52.649 22.949 53.815 22.949 55.205 C 22.949 56.596 21.783 57.762 20.393 57.762 C 19.003 57.762 17.836 56.596 17.836 55.205 C 17.836 53.815 19.003 52.649 20.393 52.649 Z " fill="rgb(255,255,255)"/><path d=" M -72.853 73.37 C -74.288 73.37 -75.634 73.101 -76.89 72.563 L -76.89 49.33 C -76.89 49.016 -76.845 48.702 -76.8 48.388 L -76.979 48.388 C -78.459 48.881 -79.805 49.734 -80.837 50.855 C -81.016 51.438 -81.106 52.066 -81.106 52.694 L -81.106 78.842 L 26.179 78.842 L 26.179 73.325 L -72.853 73.37 L -72.853 73.37 Z  M 24.654 29.326 C 26.044 29.326 27.21 30.492 27.21 31.883 C 27.21 33.273 26.044 34.439 24.654 34.439 C 23.263 34.439 22.097 33.273 22.097 31.883 C 22.097 30.492 23.263 29.326 24.654 29.326 Z " fill="rgb(194,230,234)"/><path d=" M 29.722 16.14 L -83.483 16.14 C -90.749 16.14 -96.669 22.06 -96.669 29.326 L -96.669 70.814 C -96.669 77.138 -92.229 82.43 -86.264 83.686 L -86.264 83.91 L -84.2 83.955 C -83.931 83.955 -83.707 84 -83.438 84 L 30.484 84 L 32.503 83.955 L 32.503 83.731 C 38.568 82.422 42.9 77.063 42.908 70.859 L 42.908 29.371 C 42.908 22.06 36.988 16.14 29.722 16.14 Z  M -68.188 48.433 L -68.188 66.687 L -63.075 66.687 L -63.075 46.325 L -58.635 46.325 L -58.635 66.687 L -53.522 66.687 L -53.522 46.325 L -39.528 46.325 L -39.528 66.687 L -34.415 66.687 L -34.415 46.325 L -29.975 46.325 L -29.975 66.687 L -24.907 66.687 L -24.907 46.325 L -20.467 46.325 L -20.467 66.687 L -15.354 66.687 L -15.354 46.325 L -1.36 46.325 L -1.36 66.687 L 3.753 66.687 L 3.753 46.325 L 8.193 46.325 L 8.193 66.687 L 13.306 66.687 L 13.306 46.325 L 20.976 46.325 C 24.519 46.325 27.435 49.195 27.435 52.783 L 27.435 78.932 L -81.151 78.932 L -81.151 52.783 C -81.151 52.156 -81.061 51.528 -80.881 50.945 C -80.056 48.238 -77.566 46.384 -74.737 46.37 L -68.233 46.37 L -68.188 48.433 L -68.188 48.433 Z  M 37.84 70.814 C 37.84 73.729 36.27 76.286 33.938 77.721 C 33.49 77.99 32.996 78.214 32.503 78.394 L 32.503 52.739 C 32.503 46.373 27.342 41.212 20.976 41.212 L -74.692 41.212 C -81.058 41.212 -86.219 46.373 -86.219 52.739 L -86.219 78.394 C -89.313 77.272 -91.511 74.312 -91.511 70.814 L -91.511 29.326 C -91.499 24.873 -87.892 21.265 -83.438 21.253 L 29.767 21.253 C 34.207 21.253 37.84 24.886 37.84 29.326 L 37.84 70.814 Z  M -75.634 26.142 C -77.496 26.086 -79.241 27.047 -80.189 28.65 C -81.137 30.254 -81.138 32.246 -80.191 33.851 C -79.245 35.455 -77.5 36.418 -75.638 36.363 C -72.875 36.283 -70.676 34.02 -70.674 31.255 C -70.673 28.49 -72.87 26.225 -75.634 26.142 Z  M -74.826 33.632 C -75.606 33.9 -76.466 33.773 -77.135 33.291 C -77.804 32.81 -78.197 32.034 -78.19 31.21 C -78.204 30.536 -77.945 29.885 -77.472 29.404 C -76.999 28.923 -76.353 28.652 -75.679 28.653 C -74.288 28.653 -73.122 29.775 -73.122 31.21 C -73.077 32.376 -73.795 33.318 -74.826 33.632 L -74.826 33.632 Z  M -60.339 26.142 C -63.163 26.142 -65.453 28.431 -65.453 31.255 C -65.453 34.079 -63.163 36.368 -60.339 36.368 C -57.516 36.368 -55.226 34.079 -55.226 31.255 C -55.271 28.429 -57.559 26.142 -60.339 26.142 Z  M -59.801 33.722 C -59.981 33.767 -60.16 33.767 -60.339 33.767 C -61.751 33.767 -62.896 32.622 -62.896 31.21 C -62.896 30.537 -62.627 29.864 -62.178 29.416 C -61.73 28.967 -61.057 28.653 -60.384 28.653 C -58.994 28.653 -57.828 29.775 -57.828 31.21 C -57.783 32.466 -58.68 33.497 -59.801 33.722 L -59.801 33.722 Z  M -9.882 27.622 L -43.834 27.622 C -44.552 27.622 -45.09 28.205 -45.09 28.878 C -45.09 29.55 -44.507 30.134 -43.834 30.134 L -9.882 30.134 C -9.433 30.134 -9.018 29.894 -8.794 29.506 C -8.57 29.117 -8.57 28.638 -8.794 28.25 C -9.018 27.861 -9.433 27.622 -9.882 27.622 L -9.882 27.622 Z  M -13.56 33.991 L -40.156 33.991 C -40.874 33.991 -41.412 34.574 -41.412 35.247 C -41.412 35.919 -40.829 36.502 -40.156 36.502 L -13.56 36.502 C -12.842 36.502 -12.304 35.919 -12.304 35.247 C -12.304 34.574 -12.887 33.991 -13.56 33.991 Z " fill="rgb(0,0,0)"/></g></g></svg>